<svg width="106" height="25" viewBox="0 0 106 25" fill="none" xmlns="http://www.w3.org/2000/svg">
<path d="M7.39352 9.74C7.47352 8.79333 7.80685 7.94 8.39352 7.18C8.99352 6.42 9.84018 5.82 10.9335 5.38C12.0268 4.92667 13.3402 4.7 14.8735 4.7C16.2202 4.7 17.3868 4.87333 18.3735 5.22C19.3602 5.56667 20.1268 6.04667 20.6735 6.66C21.2202 7.27333 21.4935 8 21.4935 8.84C21.4935 9.52 21.2868 10.14 20.8735 10.7C20.4735 11.2467 19.8468 11.6867 18.9935 12.02C18.1402 12.34 17.0602 12.4933 15.7535 12.48V12.1C17.0202 12.0333 18.1002 12.1333 18.9935 12.4C19.9002 12.6533 20.6002 13.0533 21.0935 13.6C21.5868 14.1467 21.8335 14.8333 21.8335 15.66C21.8335 16.5533 21.5468 17.3533 20.9735 18.06C20.4135 18.7533 19.5935 19.3 18.5135 19.7C17.4335 20.1 16.1202 20.3 14.5735 20.3C13.0668 20.3 11.7535 20.0867 10.6335 19.66C9.51352 19.2333 8.64018 18.6333 8.01352 17.86C7.38685 17.0867 7.04685 16.18 6.99352 15.14H10.3935C10.5002 15.94 10.9002 16.5533 11.5935 16.98C12.2868 17.4067 13.2802 17.62 14.5735 17.62C15.8268 17.62 16.7735 17.4267 17.4135 17.04C18.0535 16.6533 18.3735 16.1133 18.3735 15.42C18.3735 15.0067 18.2668 14.66 18.0535 14.38C17.8402 14.1 17.4735 13.8933 16.9535 13.76C16.4468 13.6133 15.7535 13.54 14.8735 13.54H12.2335V11.16H14.8735C16.0202 11.16 16.8402 10.9867 17.3335 10.64C17.8268 10.2933 18.0735 9.84667 18.0735 9.3C18.0735 8.68667 17.7935 8.21333 17.2335 7.88C16.6735 7.54667 15.8268 7.38 14.6935 7.38C13.5335 7.38 12.6268 7.58667 11.9735 8C11.3202 8.4 10.9268 8.98 10.7935 9.74H7.39352ZM30.3965 5H41.7565V7.6H31.4365L32.8165 6.9L31.9765 12.76H31.0765C31.3832 12.28 31.7898 11.8333 32.2965 11.42C32.8165 11.0067 33.4498 10.6733 34.1965 10.42C34.9432 10.1667 35.8032 10.04 36.7765 10.04C38.0698 10.04 39.1765 10.26 40.0965 10.7C41.0165 11.1267 41.7165 11.72 42.1965 12.48C42.6898 13.2267 42.9365 14.08 42.9365 15.04C42.9365 16.0667 42.6498 16.9733 42.0765 17.76C41.5032 18.5467 40.6898 19.1667 39.6365 19.62C38.5832 20.0733 37.3298 20.3 35.8765 20.3C34.4365 20.3 33.1832 20.0933 32.1165 19.68C31.0498 19.2533 30.2098 18.6733 29.5965 17.94C28.9965 17.2067 28.6432 16.3933 28.5365 15.5H31.9165C32.0765 16.1533 32.4965 16.6733 33.1765 17.06C33.8565 17.4333 34.7565 17.62 35.8765 17.62C36.6232 17.62 37.2698 17.52 37.8165 17.32C38.3632 17.1067 38.7832 16.8067 39.0765 16.42C39.3832 16.0333 39.5365 15.5733 39.5365 15.04C39.5365 14.52 39.4032 14.0667 39.1365 13.68C38.8832 13.28 38.4965 12.9733 37.9765 12.76C37.4698 12.5467 36.8232 12.44 36.0365 12.44C35.3965 12.44 34.8165 12.5133 34.2965 12.66C33.7898 12.8067 33.3498 13 32.9765 13.24C32.6165 13.4667 32.3098 13.7067 32.0565 13.96H29.1565L30.3965 5ZM52.8168 20.3C51.1368 20.3 49.6835 19.98 48.4568 19.34C47.2435 18.6867 46.3035 17.7733 45.6368 16.6C44.9701 15.4267 44.6368 14.06 44.6368 12.5C44.6368 10.94 44.9701 9.57333 45.6368 8.4C46.3035 7.22667 47.2435 6.32 48.4568 5.68C49.6835 5.02667 51.1368 4.7 52.8168 4.7C54.4835 4.7 55.9235 5.02667 57.1368 5.68C58.3635 6.32 59.3101 7.22667 59.9768 8.4C60.6435 9.57333 60.9768 10.94 60.9768 12.5C60.9768 14.06 60.6435 15.4267 59.9768 16.6C59.3101 17.7733 58.3635 18.6867 57.1368 19.34C55.9235 19.98 54.4835 20.3 52.8168 20.3ZM52.8168 17.54C54.3235 17.54 55.4901 17.1 56.3168 16.22C57.1568 15.3267 57.5768 14.0867 57.5768 12.5C57.5768 10.9 57.1568 9.66 56.3168 8.78C55.4901 7.9 54.3235 7.46 52.8168 7.46C51.3101 7.46 50.1368 7.9 49.2968 8.78C48.4568 9.66 48.0368 10.9 48.0368 12.5C48.0368 14.1 48.4568 15.34 49.2968 16.22C50.1368 17.1 51.3101 17.54 52.8168 17.54ZM71.0004 20.3C69.3204 20.3 67.8671 19.98 66.6404 19.34C65.4271 18.6867 64.4871 17.7733 63.8204 16.6C63.1537 15.4267 62.8204 14.06 62.8204 12.5C62.8204 10.94 63.1537 9.57333 63.8204 8.4C64.4871 7.22667 65.4271 6.32 66.6404 5.68C67.8671 5.02667 69.3204 4.7 71.0004 4.7C72.6671 4.7 74.1071 5.02667 75.3204 5.68C76.5471 6.32 77.4937 7.22667 78.1604 8.4C78.8271 9.57333 79.1604 10.94 79.1604 12.5C79.1604 14.06 78.8271 15.4267 78.1604 16.6C77.4937 17.7733 76.5471 18.6867 75.3204 19.34C74.1071 19.98 72.6671 20.3 71.0004 20.3ZM71.0004 17.54C72.5071 17.54 73.6737 17.1 74.5004 16.22C75.3404 15.3267 75.7604 14.0867 75.7604 12.5C75.7604 10.9 75.3404 9.66 74.5004 8.78C73.6737 7.9 72.5071 7.46 71.0004 7.46C69.4937 7.46 68.3204 7.9 67.4804 8.78C66.6404 9.66 66.2204 10.9 66.2204 12.5C66.2204 14.1 66.6404 15.34 67.4804 16.22C68.3204 17.1 69.4937 17.54 71.0004 17.54ZM90.544 7.36H85.144L86.664 5.84V20H83.264V5H90.744C91.8507 5 92.7973 5.19333 93.584 5.58C94.3707 5.95333 94.9773 6.48667 95.404 7.18C95.844 7.86 96.064 8.66 96.064 9.58C96.064 10.4867 95.844 11.2867 95.404 11.98C94.9773 12.66 94.3707 13.1933 93.584 13.58C92.7973 13.9533 91.8507 14.14 90.744 14.14H81.064V11.78H90.544C91.1973 11.78 91.7107 11.5867 92.084 11.2C92.4573 10.8 92.644 10.26 92.644 9.58C92.644 8.88667 92.4573 8.34667 92.084 7.96C91.7107 7.56 91.1973 7.36 90.544 7.36ZM81.044 17.84V15.76H93.084V17.84H81.044Z" fill="#979797"/>
<path d="M1 18L105 7" stroke="#D42222" stroke-width="2"/>
</svg>
