<svg width="106" height="25" viewBox="0 0 106 25" fill="none" xmlns="http://www.w3.org/2000/svg">
<path d="M8.5007 5V20H5.1407V6.12L6.8207 7.64L0.440703 8.76V6.12L6.0007 5H8.5007ZM19.223 20.3C17.543 20.3 16.0897 19.98 14.863 19.34C13.6497 18.6867 12.7097 17.7733 12.043 16.6C11.3764 15.4267 11.043 14.06 11.043 12.5C11.043 10.94 11.3764 9.57333 12.043 8.4C12.7097 7.22667 13.6497 6.32 14.863 5.68C16.0897 5.02667 17.543 4.7 19.223 4.7C20.8897 4.7 22.3297 5.02667 23.543 5.68C24.7697 6.32 25.7164 7.22667 26.383 8.4C27.0497 9.57333 27.383 10.94 27.383 12.5C27.383 14.06 27.0497 15.4267 26.383 16.6C25.7164 17.7733 24.7697 18.6867 23.543 19.34C22.3297 19.98 20.8897 20.3 19.223 20.3ZM19.223 17.54C20.7297 17.54 21.8964 17.1 22.723 16.22C23.563 15.3267 23.983 14.0867 23.983 12.5C23.983 10.9 23.563 9.66 22.723 8.78C21.8964 7.9 20.7297 7.46 19.223 7.46C17.7164 7.46 16.543 7.9 15.703 8.78C14.863 9.66 14.443 10.9 14.443 12.5C14.443 14.1 14.863 15.34 15.703 16.22C16.543 17.1 17.7164 17.54 19.223 17.54ZM34.4638 9.74C34.5438 8.79333 34.8772 7.94 35.4638 7.18C36.0638 6.42 36.9105 5.82 38.0038 5.38C39.0972 4.92667 40.4105 4.7 41.9438 4.7C43.2905 4.7 44.4572 4.87333 45.4438 5.22C46.4305 5.56667 47.1972 6.04667 47.7438 6.66C48.2905 7.27333 48.5638 8 48.5638 8.84C48.5638 9.52 48.3572 10.14 47.9438 10.7C47.5438 11.2467 46.9172 11.6867 46.0638 12.02C45.2105 12.34 44.1305 12.4933 42.8238 12.48V12.1C44.0905 12.0333 45.1705 12.1333 46.0638 12.4C46.9705 12.6533 47.6705 13.0533 48.1638 13.6C48.6572 14.1467 48.9038 14.8333 48.9038 15.66C48.9038 16.5533 48.6172 17.3533 48.0438 18.06C47.4838 18.7533 46.6638 19.3 45.5838 19.7C44.5038 20.1 43.1905 20.3 41.6438 20.3C40.1372 20.3 38.8238 20.0867 37.7038 19.66C36.5838 19.2333 35.7105 18.6333 35.0838 17.86C34.4572 17.0867 34.1172 16.18 34.0638 15.14H37.4638C37.5705 15.94 37.9705 16.5533 38.6638 16.98C39.3572 17.4067 40.3505 17.62 41.6438 17.62C42.8972 17.62 43.8438 17.4267 44.4838 17.04C45.1238 16.6533 45.4438 16.1133 45.4438 15.42C45.4438 15.0067 45.3372 14.66 45.1238 14.38C44.9105 14.1 44.5438 13.8933 44.0238 13.76C43.5172 13.6133 42.8238 13.54 41.9438 13.54H39.3038V11.16H41.9438C43.0905 11.16 43.9105 10.9867 44.4038 10.64C44.8972 10.2933 45.1438 9.84667 45.1438 9.3C45.1438 8.68667 44.8638 8.21333 44.3038 7.88C43.7438 7.54667 42.8972 7.38 41.7638 7.38C40.6038 7.38 39.6972 7.58667 39.0438 8C38.3905 8.4 37.9972 8.98 37.8638 9.74H34.4638ZM58.9496 20.3C57.2696 20.3 55.8163 19.98 54.5896 19.34C53.3763 18.6867 52.4363 17.7733 51.7696 16.6C51.1029 15.4267 50.7696 14.06 50.7696 12.5C50.7696 10.94 51.1029 9.57333 51.7696 8.4C52.4363 7.22667 53.3763 6.32 54.5896 5.68C55.8163 5.02667 57.2696 4.7 58.9496 4.7C60.6163 4.7 62.0563 5.02667 63.2696 5.68C64.4963 6.32 65.4429 7.22667 66.1096 8.4C66.7763 9.57333 67.1096 10.94 67.1096 12.5C67.1096 14.06 66.7763 15.4267 66.1096 16.6C65.4429 17.7733 64.4963 18.6867 63.2696 19.34C62.0563 19.98 60.6163 20.3 58.9496 20.3ZM58.9496 17.54C60.4563 17.54 61.6229 17.1 62.4496 16.22C63.2896 15.3267 63.7096 14.0867 63.7096 12.5C63.7096 10.9 63.2896 9.66 62.4496 8.78C61.6229 7.9 60.4563 7.46 58.9496 7.46C57.4429 7.46 56.2696 7.9 55.4296 8.78C54.5896 9.66 54.1696 10.9 54.1696 12.5C54.1696 14.1 54.5896 15.34 55.4296 16.22C56.2696 17.1 57.4429 17.54 58.9496 17.54ZM77.1332 20.3C75.4532 20.3 73.9999 19.98 72.7732 19.34C71.5599 18.6867 70.6199 17.7733 69.9532 16.6C69.2865 15.4267 68.9532 14.06 68.9532 12.5C68.9532 10.94 69.2865 9.57333 69.9532 8.4C70.6199 7.22667 71.5599 6.32 72.7732 5.68C73.9999 5.02667 75.4532 4.7 77.1332 4.7C78.7999 4.7 80.2399 5.02667 81.4532 5.68C82.6799 6.32 83.6265 7.22667 84.2932 8.4C84.9599 9.57333 85.2932 10.94 85.2932 12.5C85.2932 14.06 84.9599 15.4267 84.2932 16.6C83.6265 17.7733 82.6799 18.6867 81.4532 19.34C80.2399 19.98 78.7999 20.3 77.1332 20.3ZM77.1332 17.54C78.6399 17.54 79.8065 17.1 80.6332 16.22C81.4732 15.3267 81.8932 14.0867 81.8932 12.5C81.8932 10.9 81.4732 9.66 80.6332 8.78C79.8065 7.9 78.6399 7.46 77.1332 7.46C75.6265 7.46 74.4532 7.9 73.6132 8.78C72.7732 9.66 72.3532 10.9 72.3532 12.5C72.3532 14.1 72.7732 15.34 73.6132 16.22C74.4532 17.1 75.6265 17.54 77.1332 17.54ZM96.6768 7.36H91.2768L92.7968 5.84V20H89.3968V5H96.8768C97.9835 5 98.9301 5.19333 99.7168 5.58C100.503 5.95333 101.11 6.48667 101.537 7.18C101.977 7.86 102.197 8.66 102.197 9.58C102.197 10.4867 101.977 11.2867 101.537 11.98C101.11 12.66 100.503 13.1933 99.7168 13.58C98.9301 13.9533 97.9835 14.14 96.8768 14.14H87.1968V11.78H96.6768C97.3301 11.78 97.8435 11.5867 98.2168 11.2C98.5901 10.8 98.7768 10.26 98.7768 9.58C98.7768 8.88667 98.5901 8.34667 98.2168 7.96C97.8435 7.56 97.3301 7.36 96.6768 7.36ZM87.1768 17.84V15.76H99.2168V17.84H87.1768Z" fill="#979797"/>
<path d="M1 18L105 7" stroke="#D42222" stroke-width="2"/>
</svg>
