<svg width="11" height="10" viewBox="0 0 11 10" fill="none" xmlns="http://www.w3.org/2000/svg">
<path d="M10.0714 4.57143H5.92857V0.428571C5.92857 0.191878 5.73669 0 5.5 0C5.26331 0 5.07143 0.191878 5.07143 0.428571V4.57143H0.928571C0.691878 4.57143 0.5 4.76331 0.5 5C0.5 5.23669 0.691878 5.42857 0.928571 5.42857H5.07143V9.57143C5.07143 9.80812 5.26331 10 5.5 10C5.73669 10 5.92857 9.80812 5.92857 9.57143V5.42857H10.0714C10.3081 5.42857 10.5 5.23669 10.5 5C10.5 4.76331 10.3081 4.57143 10.0714 4.57143Z" fill="#333333"/>
</svg>
